<?xml version="1.0" standalone="no"?>
<!DOCTYPE svg PUBLIC "-//W3C//DTD SVG 20010904//EN"
 "http://www.w3.org/TR/2001/REC-SVG-20010904/DTD/svg10.dtd">
<svg version="1.0" xmlns="http://www.w3.org/2000/svg"
 width="1563.213968pt" height="1971.518945pt" viewBox="0 0 1563.213968 1971.518945"
 preserveAspectRatio="xMidYMid meet">
<metadata>
Created by potrace 1.12, written by Peter Selinger 2001-2015
</metadata>
<g transform="translate(-285.407871,1989.658041) scale(0.100000,-0.100000)"
fill="#000000" stroke="none">
<path d="M15383 19885 c-250 -48 -428 -129 -573 -262 -30 -28 -127 -98 -216
-156 -88 -59 -188 -131 -222 -161 -33 -30 -127 -98 -209 -151 -81 -54 -173
-121 -204 -149 -72 -66 -922 -624 -1019 -669 -41 -18 -138 -76 -215 -127 -77
-51 -176 -110 -220 -130 -44 -21 -140 -77 -212 -124 -72 -47 -164 -101 -205
-119 -40 -19 -99 -50 -130 -70 -31 -20 -79 -46 -106 -56 -27 -11 -78 -37 -113
-58 -35 -21 -145 -74 -244 -118 -99 -43 -202 -91 -230 -106 -123 -68 -681
-270 -951 -344 -152 -42 -318 -107 -388 -152 -297 -191 -647 -643 -821 -1057
-46 -109 -124 -341 -149 -441 -24 -95 -48 -351 -40 -435 3 -41 15 -114 25
-162 12 -54 19 -127 19 -187 0 -111 -18 -251 -31 -251 -5 0 -9 4 -9 8 0 5 -52
67 -116 138 -216 241 -232 260 -278 331 -52 81 -126 151 -194 185 -68 33 -198
33 -262 -1 -48 -25 -204 -131 -305 -206 -33 -25 -80 -59 -105 -77 -25 -18 -86
-74 -136 -126 l-91 -92 -67 61 c-37 34 -85 87 -106 118 -21 31 -57 76 -80 101
-23 25 -60 70 -83 100 -64 86 -218 240 -262 263 -60 31 -133 29 -179 -7 -53
-40 -69 -59 -157 -183 -97 -137 -120 -152 -304 -199 -199 -50 -351 -43 -580
25 -162 47 -205 54 -312 49 -127 -7 -164 -24 -279 -135 -105 -103 -134 -154
-189 -343 -20 -67 -47 -139 -61 -161 l-25 -40 -32 19 c-56 34 -248 93 -322 98
-114 9 -184 -36 -245 -156 -34 -68 -38 -87 -49 -270 -10 -163 -27 -207 -127
-324 -96 -113 -228 -190 -347 -203 -64 -7 -163 -59 -235 -124 -28 -26 -78 -58
-110 -71 -51 -20 -73 -23 -212 -23 -135 0 -159 -2 -182 -19 -16 -10 -28 -26
-28 -36 0 -10 -2 -25 -6 -33 -4 -10 24 -28 98 -65 122 -60 267 -177 340 -273
126 -167 185 -396 144 -558 -19 -73 -72 -179 -118 -235 -39 -48 -77 -64 -178
-77 -119 -14 -200 -43 -237 -81 -56 -59 -57 -68 -19 -150 19 -40 51 -91 71
-113 58 -63 171 -236 199 -305 61 -150 82 -269 66 -378 -28 -195 -76 -306
-209 -482 -103 -137 -126 -188 -125 -281 0 -54 6 -79 32 -132 64 -130 187
-213 533 -362 247 -106 389 -177 500 -251 96 -64 138 -102 253 -230 69 -76 93
-114 149 -228 65 -132 70 -138 112 -157 26 -11 61 -19 82 -17 35 3 39 0 68
-48 17 -28 44 -99 60 -158 37 -137 42 -140 200 -138 115 2 179 -11 220 -46 12
-9 40 -43 64 -75 68 -93 115 -102 211 -42 148 93 469 144 825 130 260 -10 648
-51 875 -94 58 -11 134 -22 170 -26 90 -9 426 -79 535 -111 50 -14 119 -34
155 -43 l65 -16 -225 -3 c-219 -4 -477 8 -670 29 -52 5 -171 16 -265 24 -93 7
-210 19 -260 26 -49 6 -112 13 -140 14 -76 3 -229 27 -240 36 -13 12 -55 11
-55 -1 0 -5 -11 -10 -24 -10 -14 0 -28 5 -31 10 -3 6 -15 10 -26 10 -10 0 -19
-4 -19 -10 0 -5 -13 -10 -30 -10 -48 0 -280 -48 -389 -80 -54 -16 -190 -68
-302 -115 -112 -47 -269 -114 -349 -147 -391 -165 -531 -257 -681 -449 -35
-45 -114 -143 -174 -218 -61 -75 -174 -218 -250 -319 -77 -101 -168 -220 -203
-265 -34 -45 -82 -120 -106 -167 -48 -94 -108 -269 -126 -370 -6 -36 -22 -108
-35 -160 -38 -154 -64 -308 -70 -415 -4 -82 -7 -100 -20 -99 -13 2 -15 -16
-14 -115 0 -64 3 -110 6 -103 2 6 11 12 19 12 11 0 14 -20 14 -97 0 -77 10
-145 45 -314 48 -236 67 -293 142 -444 66 -131 119 -199 245 -316 111 -104
167 -184 174 -246 2 -21 5 -74 6 -118 2 -75 0 -85 -35 -157 -21 -43 -86 -142
-145 -220 -112 -149 -155 -229 -172 -319 -12 -61 -12 -801 0 -809 18 -13 -78
-435 -228 -995 -38 -145 -45 -185 -46 -270 -1 -92 1 -105 31 -167 37 -78 80
-137 143 -194 211 -191 439 -292 640 -282 61 3 97 10 126 26 111 57 173 213
174 432 0 101 37 325 74 450 28 95 301 771 363 900 36 74 72 150 80 169 l14
34 26 -37 c13 -21 51 -99 83 -174 32 -75 88 -197 124 -270 86 -170 166 -376
205 -522 45 -169 48 -178 75 -225 69 -117 203 -185 364 -185 35 0 62 -5 72
-15 22 -20 221 -34 203 -14 -30 31 4 40 53 14 36 -19 55 -19 48 -1 -4 9 11 16
53 25 70 13 127 56 154 115 35 78 21 163 -57 336 -88 198 -180 496 -204 665
-6 44 -14 91 -17 105 -5 22 -16 272 -14 310 1 8 3 49 5 91 3 66 20 126 130
451 82 244 130 402 138 455 10 66 15 80 27 76 9 -3 81 -37 161 -75 321 -154
551 -231 835 -277 414 -67 523 -97 775 -216 173 -82 235 -98 324 -84 96 16
134 45 213 164 56 83 122 141 206 180 80 37 302 92 622 155 317 63 448 98 835
228 382 129 575 198 710 257 339 147 376 160 430 145 54 -15 113 -70 148 -142
57 -117 117 -370 142 -608 6 -47 15 -130 21 -185 6 -55 14 -179 19 -276 4 -97
11 -182 15 -188 4 -7 2 -17 -3 -24 -15 -18 1 -620 16 -625 7 -2 12 -25 12 -55
1 -106 37 -202 101 -266 22 -22 79 -60 127 -84 164 -86 202 -127 236 -257 42
-163 117 -237 289 -287 129 -37 209 -46 353 -39 228 11 326 60 386 191 20 44
23 64 22 175 -1 91 -7 146 -22 205 -45 171 -50 235 -52 577 0 181 4 354 9 386
55 316 125 608 191 797 25 72 160 607 189 751 64 314 190 538 459 817 70 72
155 166 189 208 34 41 101 109 150 150 48 40 131 114 183 164 107 101 318 272
459 373 52 37 138 106 190 155 93 87 372 319 441 367 19 14 71 58 115 99 44
40 111 99 150 130 38 31 108 93 155 137 47 45 118 110 159 145 63 55 183 195
283 330 59 79 221 250 305 321 97 82 198 159 463 353 214 158 279 213 438 375
131 133 196 220 311 418 116 200 144 281 166 472 14 117 18 132 65 226 29 58
54 125 60 157 23 142 -16 345 -100 522 -10 22 -28 65 -40 95 -26 67 -80 159
-101 173 -28 18 -64 -1 -152 -82 -95 -86 -83 -81 -284 -121 -51 -11 -109 -16
-128 -13 -20 3 -46 1 -58 -5 -32 -16 -93 -22 -277 -28 -136 -5 -191 -2 -315
15 -171 25 -193 30 -330 76 -179 60 -378 107 -530 125 -171 20 -267 90 -383
277 -39 62 -103 145 -164 210 -151 162 -218 240 -279 323 -89 123 -247 302
-296 337 -108 77 -176 30 -284 -194 -38 -79 -73 -143 -78 -143 -5 0 -14 14
-22 32 -7 17 -37 56 -67 86 -50 50 -57 54 -90 48 -19 -3 -39 -9 -44 -14 -15
-15 -84 -203 -144 -392 -80 -252 -105 -479 -69 -632 8 -35 18 -109 22 -165 8
-91 6 -107 -10 -140 -28 -55 -78 -105 -203 -199 -61 -46 -122 -94 -135 -107
-13 -13 -69 -61 -124 -107 -55 -47 -150 -127 -211 -180 -140 -119 -407 -291
-679 -436 -358 -190 -505 -253 -726 -309 -172 -44 -519 -118 -525 -112 -3 3
233 245 291 297 44 40 149 152 370 396 38 42 132 134 210 204 77 70 283 271
457 446 175 175 321 322 325 326 119 113 247 245 358 372 320 363 408 465 468
536 34 41 104 122 156 180 102 115 354 434 526 667 60 81 135 180 167 218 84
102 258 357 527 773 73 114 162 250 196 302 72 110 135 220 195 340 23 47 81
150 127 229 47 79 110 196 140 260 30 64 94 195 140 291 179 367 353 812 472
1205 144 478 215 773 241 1000 6 55 16 119 21 143 17 80 40 316 53 557 17 323
0 770 -40 1045 -23 155 -81 449 -114 576 -39 147 -130 405 -173 491 -19 37
-49 97 -66 133 -41 85 -97 159 -221 291 -149 160 -295 251 -520 324 -115 37
-116 38 -310 41 -137 2 -216 -1 -267 -11z m518 -642 c124 -58 174 -140 199
-320 18 -132 -42 -413 -89 -413 -4 0 -13 19 -20 43 -7 23 -41 85 -77 138 -53
80 -74 103 -129 139 -222 145 -454 115 -789 -103 -133 -87 -186 -112 -186 -89
0 4 40 61 88 128 139 193 349 360 555 442 204 82 329 91 448 35z m-379 -911
c9 -24 13 -89 13 -193 l0 -155 70 32 c112 52 186 67 315 68 211 0 373 -67 520
-214 100 -100 150 -181 191 -310 26 -82 31 -119 40 -280 18 -331 -11 -637
-100 -1062 -61 -287 -105 -441 -224 -778 -71 -204 -89 -246 -236 -564 -55
-120 -101 -221 -101 -224 0 -8 -128 -229 -190 -327 -31 -49 -88 -139 -125
-200 -76 -123 -136 -203 -240 -320 -39 -44 -93 -107 -119 -140 -123 -151 -266
-280 -405 -367 -96 -60 -100 -63 -107 -96 -15 -74 -118 -374 -173 -507 -78
-186 -254 -549 -325 -670 -29 -49 -78 -133 -108 -185 -162 -282 -235 -391
-653 -976 -104 -145 -353 -460 -425 -538 -42 -45 -122 -137 -178 -206 -177
-218 -366 -437 -516 -600 -169 -182 -386 -400 -429 -429 -47 -32 -167 -91
-186 -91 -5 0 -12 13 -16 28 -4 20 -17 34 -41 45 -34 17 -73 79 -74 119 0 9
-20 28 -44 42 -48 28 -100 82 -123 130 -22 46 -93 94 -165 112 -35 8 -91 24
-125 35 -56 18 -82 20 -240 16 -208 -5 -397 -32 -462 -66 -25 -13 -74 -34
-109 -48 -36 -13 -142 -62 -236 -108 -159 -79 -286 -124 -346 -125 -26 -1 -82
-27 -147 -71 -36 -24 -169 -69 -204 -69 -17 0 -189 -85 -229 -112 -13 -10 -32
-18 -42 -18 -10 0 -35 -15 -56 -34 -20 -19 -78 -59 -127 -90 -97 -60 -385
-206 -449 -226 -70 -22 -147 -8 -341 65 -418 156 -562 186 -919 193 -219 3
-362 -6 -640 -44 -194 -26 -267 -46 -351 -99 -27 -17 -57 -29 -65 -27 -8 2
-32 26 -53 53 -86 113 -178 134 -348 80 -138 -44 -146 -43 -192 28 l-38 59
-60 -14 c-32 -8 -87 -26 -121 -40 -53 -22 -74 -25 -138 -22 -69 3 -81 6 -122
38 -26 19 -53 47 -62 62 -18 30 -21 109 -6 206 13 96 -1 161 -65 286 -30 59
-55 118 -55 130 0 32 -99 205 -124 218 -11 6 -44 28 -72 49 -28 22 -54 39 -58
39 -4 0 -30 23 -59 51 -29 28 -96 77 -151 109 -85 51 -114 63 -215 85 -158 36
-219 53 -226 65 -7 12 200 112 315 151 103 36 335 85 445 94 64 6 96 15 160
46 44 22 113 46 154 53 107 20 179 60 219 121 17 28 31 54 29 58 -1 5 -50 30
-108 56 -226 101 -428 246 -501 360 -33 52 -38 87 -11 76 142 -56 383 -118
508 -130 33 -3 79 -8 103 -10 36 -4 47 -1 68 20 33 33 30 56 -16 125 -49 70
-95 192 -105 275 -4 33 -13 72 -21 86 -7 14 -16 53 -19 86 -6 53 -12 66 -44
96 -24 23 -56 41 -96 52 -33 9 -86 32 -117 51 -70 43 -197 178 -237 254 -53
99 -128 436 -118 532 l4 48 -71 53 c-62 47 -108 100 -95 111 39 33 238 155
283 173 70 29 183 124 249 210 88 115 115 143 226 238 152 128 179 146 329
215 131 60 206 83 303 95 48 5 62 12 94 45 l37 38 -41 97 c-23 54 -40 100 -37
102 2 3 22 7 43 10 27 3 70 -5 148 -31 l111 -36 73 30 c211 86 478 107 686 54
300 -77 503 -150 694 -251 149 -78 177 -95 295 -182 102 -74 197 -126 271
-148 28 -9 67 -24 87 -34 51 -26 82 -11 114 56 13 29 24 55 24 58 0 3 -41 94
-91 203 -90 192 -91 197 -85 252 4 31 15 70 26 87 30 48 62 60 159 60 121 0
172 -26 288 -142 48 -50 112 -117 141 -151 52 -60 54 -61 80 -48 15 7 52 21
82 31 61 19 225 99 312 152 31 19 80 40 110 47 l53 11 7 75 c8 90 62 248 107
313 22 32 48 54 87 73 55 27 57 27 71 8 9 -10 29 -48 46 -84 l31 -65 -3 -160
c-2 -88 -3 -182 -4 -210 0 -90 14 -179 36 -222 l22 -43 70 0 c38 0 98 -7 131
-15 73 -17 241 -81 340 -130 38 -19 73 -35 76 -35 3 0 5 19 5 43 -1 38 30 174
68 303 21 73 50 123 144 252 l82 113 -36 49 c-19 26 -64 75 -100 109 l-65 61
42 31 c24 17 77 51 118 75 69 41 80 53 120 121 58 98 159 235 233 312 l57 61
0 70 c0 39 4 70 10 70 5 0 24 -13 42 -29 l33 -29 85 65 c102 77 215 146 328
198 l82 39 21 70 c11 39 40 134 64 212 57 186 63 222 74 469 14 289 47 412
121 450 42 22 71 18 121 -14 61 -41 86 -70 170 -196 116 -174 184 -346 264
-660 l53 -210 36 -3 c31 -3 41 3 92 55 31 32 94 109 139 171 l82 112 7 168
c14 336 53 618 106 757 53 141 126 301 162 357 32 51 107 124 152 148 27 14
29 13 57 -20 16 -19 37 -48 46 -65 8 -16 31 -49 49 -71 74 -92 124 -255 124
-406 0 -60 2 -64 36 -91 19 -16 37 -27 38 -25 1 1 29 63 60 136 59 134 172
308 291 450 28 32 76 91 107 130 32 39 86 94 121 122 36 27 83 74 107 104 47
62 214 225 288 283 100 76 198 160 296 252 94 87 312 244 328 235 3 -2 12 -21
20 -42z m-1637 -192 c74 -28 122 -76 165 -164 30 -61 32 -71 27 -138 -3 -40
-10 -90 -17 -110 -12 -41 -57 -101 -70 -93 -4 2 -10 27 -14 54 -10 73 -76 168
-140 199 -106 52 -225 53 -361 2 -50 -19 -78 -41 -166 -127 -92 -90 -117 -122
-188 -243 -46 -77 -87 -137 -93 -134 -19 12 23 205 71 323 74 182 198 313 389
410 111 57 279 65 397 21z m-1805 -810 c0 -10 -24 -38 -134 -155 -96 -101
-215 -281 -296 -448 -101 -205 -128 -225 -175 -125 -33 70 -32 138 1 236 30
89 47 119 125 218 75 93 242 208 369 252 95 33 110 36 110 22z m-1368 -878
c74 -35 194 -149 181 -171 -5 -9 -47 -35 -94 -58 -46 -22 -103 -59 -125 -82
-54 -52 -127 -201 -153 -310 -27 -111 -44 -300 -39 -421 3 -55 1 -105 -3 -111
-9 -15 -169 228 -211 319 -95 208 -105 482 -24 640 43 82 151 175 244 208 65
23 159 18 224 -14z m-5346 -2360 c9 -48 -2 -126 -22 -159 -55 -88 -131 -127
-294 -148 -45 -6 -100 7 -100 23 0 5 31 30 69 56 38 26 98 77 133 114 181 191
178 189 194 168 7 -11 17 -35 20 -54z m-741 -535 c33 -16 84 -45 113 -64 55
-35 152 -120 152 -133 0 -14 -55 -62 -91 -80 -119 -61 -482 -102 -547 -61 -10
6 0 22 38 62 29 30 78 95 111 144 32 50 72 109 89 133 36 49 36 49 135 -1z
m-599 -1128 c83 -57 123 -155 110 -271 -18 -159 -92 -355 -156 -418 -36 -35
-107 -78 -149 -90 -26 -7 -33 -5 -45 12 -13 19 -12 26 8 67 27 53 139 401 155
479 6 29 11 98 11 152 0 64 4 100 11 100 6 0 30 -14 55 -31z m568 -623 c57
-24 216 -154 216 -177 0 -4 -33 -19 -72 -32 -40 -14 -107 -38 -148 -52 -143
-52 -237 -17 -247 92 -7 66 14 103 80 148 58 39 112 46 171 21z m-770 -878
c38 -91 24 -222 -34 -339 -44 -88 -73 -124 -125 -155 -54 -31 -78 -23 -41 15
49 51 120 236 136 352 21 157 38 191 64 127z m569 -110 c21 -6 58 -29 83 -51
l45 -40 -111 -74 c-70 -47 -119 -73 -133 -71 -47 7 -101 142 -83 211 11 44 98
55 199 25z m10833 -436 c39 -29 144 -149 223 -255 23 -32 85 -103 138 -159 52
-56 119 -138 148 -182 56 -87 118 -150 169 -171 17 -7 67 -18 111 -24 105 -15
226 -44 355 -85 179 -58 416 -81 560 -54 30 5 75 11 100 12 132 8 231 38 272
82 38 41 88 74 112 74 22 0 57 -59 110 -189 90 -217 98 -330 33 -461 -28 -58
-40 -96 -47 -159 -13 -113 -34 -181 -82 -271 -155 -285 -259 -392 -674 -700
-187 -138 -336 -279 -435 -410 -78 -104 -429 -455 -536 -536 -42 -33 -127
-106 -188 -164 -60 -58 -164 -146 -230 -195 -131 -98 -219 -171 -368 -309 -94
-87 -271 -226 -288 -226 -4 0 -46 -29 -92 -65 -47 -35 -120 -85 -164 -111 -43
-26 -138 -85 -212 -132 -73 -46 -183 -108 -245 -138 -61 -29 -151 -75 -200
-103 -50 -28 -115 -60 -145 -72 -183 -72 -306 -128 -418 -189 -71 -38 -182
-92 -248 -120 -66 -29 -160 -75 -210 -103 -138 -77 -286 -163 -325 -188 -19
-12 -97 -55 -173 -96 -148 -80 -275 -126 -514 -188 -128 -33 -665 -209 -710
-233 -10 -6 -90 -35 -178 -65 -88 -30 -194 -71 -235 -90 -41 -19 -102 -42
-135 -51 -203 -58 -470 -172 -635 -272 -61 -36 -329 -131 -480 -169 -52 -13
-185 -42 -295 -65 -371 -75 -441 -104 -521 -216 -55 -77 -97 -114 -130 -114
-15 0 -24 -6 -24 -15 0 -19 -21 -19 -46 0 -10 8 -28 15 -40 15 -11 0 -62 20
-113 45 -172 84 -239 103 -566 160 -77 13 -187 40 -245 59 -58 20 -136 42
-175 50 -103 22 -394 128 -520 191 -135 68 -323 117 -511 136 -71 6 -284 13
-474 14 -382 2 -414 6 -565 70 -44 18 -111 38 -150 45 -146 23 -235 63 -403
182 -113 80 -183 144 -363 334 -88 94 -157 208 -192 319 -30 93 -67 297 -67
367 0 58 -3 69 -15 64 -13 -4 -15 8 -15 74 0 64 3 80 15 80 12 0 15 15 15 73
1 39 9 110 19 157 11 47 28 128 39 180 24 107 59 216 90 275 27 52 61 100 209
292 67 87 156 203 199 258 42 55 106 132 143 170 36 39 85 96 108 127 29 38
84 86 167 146 253 185 400 235 1016 352 140 26 325 57 410 69 184 24 518 45
534 32 6 -4 52 -12 101 -15 50 -4 133 -15 185 -25 52 -10 112 -16 133 -14 20
3 79 0 131 -6 75 -9 116 -8 212 5 65 8 249 21 408 28 321 15 517 6 711 -33
l100 -20 355 24 c610 43 742 55 789 71 125 42 325 65 631 70 173 3 180 4 685
99 281 53 533 101 562 106 110 21 323 98 521 188 59 27 193 81 297 121 417
158 559 223 730 334 46 30 157 94 247 142 158 85 340 196 424 258 23 17 113
92 200 167 88 74 184 154 214 176 62 45 115 101 125 132 3 11 -1 46 -10 79
-19 77 -20 272 0 383 14 83 96 340 130 411 26 53 58 58 103 16 19 -18 43 -46
53 -63 l18 -29 42 89 c42 93 76 141 113 162 32 19 49 16 92 -15z"/>
<path d="M15112 17545 c-102 -47 -205 -181 -219 -283 -7 -55 12 -105 53 -142
129 -113 354 101 354 338 0 46 -4 58 -29 83 -37 37 -86 38 -159 4z"/>
<path d="M15313 17211 c-48 -35 -209 -213 -259 -286 -19 -27 -34 -61 -34 -75
0 -42 65 -286 110 -415 84 -240 127 -625 70 -625 -40 0 -148 199 -234 428
l-47 123 50 82 c48 79 49 84 40 130 -10 54 -23 82 -52 115 -29 32 -50 28 -91
-18 -23 -25 -38 -36 -41 -28 -14 44 -48 168 -69 257 -14 57 -27 106 -30 108
-13 14 -214 -117 -331 -215 -110 -93 -109 -71 -21 -342 42 -128 76 -238 76
-244 0 -14 -138 -186 -149 -186 -4 0 -39 97 -77 215 -55 173 -72 215 -87 215
-88 0 -447 -234 -447 -292 0 -11 36 -115 79 -232 43 -116 87 -234 97 -262 l18
-51 -47 -60 c-26 -32 -47 -68 -47 -79 0 -37 30 -110 62 -148 43 -53 72 -62
115 -36 31 18 34 19 40 2 3 -9 42 -105 85 -212 88 -213 120 -342 155 -609 22
-173 22 -408 0 -509 -18 -83 -53 -165 -92 -216 -30 -39 -115 -86 -154 -86 -42
1 -104 34 -144 79 -56 62 -79 122 -84 216 l-4 80 45 27 c86 51 133 152 107
230 -6 19 -27 50 -47 69 -34 33 -38 34 -114 34 -74 0 -81 -2 -131 -37 l-54
-37 -23 27 c-37 43 -72 124 -72 165 0 70 48 127 124 148 61 17 130 -24 187
-111 l16 -24 26 29 c14 17 41 59 59 94 28 55 34 78 36 147 3 68 0 91 -21 143
-48 119 -128 194 -241 227 -79 22 -226 15 -313 -16 -209 -73 -370 -273 -389
-485 -13 -134 60 -307 182 -434 66 -67 73 -79 79 -125 4 -28 19 -109 35 -181
16 -71 31 -164 34 -205 3 -42 17 -114 32 -160 33 -108 40 -169 21 -195 -12
-16 -19 -17 -39 -8 -30 14 -75 98 -163 308 -144 342 -227 480 -343 565 -102
75 -156 94 -282 94 -103 1 -107 0 -183 -38 -144 -72 -216 -161 -258 -323 -25
-95 -28 -293 -6 -394 l14 -66 -86 87 c-67 68 -103 95 -165 126 -76 37 -84 39
-175 39 -110 -1 -149 -16 -213 -82 -82 -85 -113 -208 -106 -428 l4 -143 -36
91 c-54 138 -79 176 -118 183 -141 27 -502 -116 -502 -198 0 -20 277 -715 340
-854 33 -73 91 -297 115 -449 21 -126 19 -187 -4 -216 l-19 -24 -29 21 c-51
38 -107 149 -213 424 -54 141 -136 307 -197 399 -70 105 -196 234 -282 289
-102 66 -161 85 -271 86 -84 1 -102 -3 -157 -28 -152 -70 -240 -235 -259 -484
l-7 -92 -54 137 c-30 76 -122 305 -205 510 -173 424 -142 383 -292 383 -144 0
-324 -51 -384 -107 -29 -27 -33 -37 -27 -60 3 -16 117 -307 252 -648 413
-1045 440 -1117 462 -1246 28 -157 43 -365 36 -479 -17 -250 -87 -370 -232
-400 -115 -24 -241 37 -380 183 -142 151 -245 320 -308 510 -76 226 -71 430
11 483 20 14 26 14 53 0 38 -20 104 -108 121 -160 18 -56 9 -147 -18 -181
l-22 -28 20 -22 c33 -36 110 -72 178 -86 196 -38 354 61 369 230 21 225 -228
561 -532 718 -115 59 -203 84 -320 90 -180 9 -314 -34 -414 -134 -64 -64 -102
-137 -128 -240 -10 -38 -18 -69 -19 -71 -1 -2 -34 8 -72 22 -139 50 -214 59
-627 76 -232 10 -313 23 -449 74 -102 39 -183 92 -263 173 -57 58 -82 93 -117
166 -52 109 -66 168 -66 285 0 158 39 265 130 365 75 82 155 119 259 120 66 1
87 -4 135 -27 99 -48 165 -154 166 -262 0 -150 -152 -331 -296 -353 l-42 -6
36 -54 c89 -133 202 -225 327 -263 89 -28 239 -30 334 -4 241 66 493 308 575
556 70 212 56 419 -44 625 -168 346 -565 590 -914 561 -334 -28 -651 -166
-947 -415 -278 -232 -465 -513 -544 -817 -102 -394 -21 -752 243 -1071 57 -68
169 -154 269 -206 186 -96 339 -132 738 -172 433 -43 615 -99 756 -232 171
-162 248 -356 221 -556 -24 -184 -99 -334 -225 -455 -123 -117 -246 -151 -353
-97 -57 29 -92 75 -111 148 -16 60 -10 96 23 154 25 43 89 83 132 83 36 0 87
-25 129 -64 l40 -36 23 78 c65 215 1 467 -162 638 -200 211 -526 245 -801 83
-107 -62 -251 -212 -304 -315 -72 -138 -88 -212 -87 -404 0 -150 3 -173 27
-253 96 -313 345 -568 647 -662 539 -168 1147 78 1536 622 59 82 173 288 189
342 4 13 14 40 22 58 l14 34 89 -85 c148 -141 371 -276 550 -335 220 -72 444
-67 610 12 166 78 269 262 270 480 l0 68 58 -49 c232 -201 487 -238 643 -94
l52 48 -78 130 c-293 483 -575 1264 -575 1593 0 112 41 156 88 96 25 -32 139
-262 249 -505 184 -405 289 -577 453 -740 109 -109 174 -155 276 -192 48 -19
80 -23 174 -23 109 0 118 2 168 29 135 75 193 217 195 482 l2 141 60 -33 c85
-46 219 -91 314 -104 141 -21 302 17 317 74 4 18 -11 52 -62 138 -193 325
-368 725 -489 1113 -101 326 -134 605 -71 605 33 0 102 -126 323 -585 201
-418 252 -506 348 -601 122 -121 260 -171 445 -161 146 8 252 58 302 144 l17
30 -62 89 c-178 255 -455 770 -564 1049 -125 317 -156 506 -95 568 16 15 24
17 40 8 35 -19 58 -61 173 -313 208 -458 310 -630 468 -789 77 -76 112 -104
175 -135 72 -35 87 -39 160 -39 72 0 89 4 148 33 99 49 153 121 189 258 18 67
21 108 21 262 0 100 1 182 2 182 0 0 26 -7 56 -15 72 -19 207 -19 284 1 259
67 448 327 496 682 13 94 8 459 -6 510 -6 22 -5 22 42 -7 47 -29 146 -61 189
-61 97 0 211 85 269 201 56 111 69 194 63 383 -3 88 -9 171 -12 184 -7 21 -6
22 21 15 52 -14 127 -8 170 15 79 41 163 170 195 302 21 82 16 330 -8 457
l-19 101 24 -9 c31 -12 94 -11 126 1 79 30 146 136 193 306 27 95 28 108 27
319 0 243 -8 291 -75 451 -34 81 -110 174 -142 174 -14 0 -16 -7 -9 -47 14
-95 8 -285 -11 -334 -39 -102 -88 -103 -144 -4 -42 75 -104 267 -138 427 -15
68 -30 133 -34 146 l-6 23 -42 -30z m-699 -1456 c31 -82 79 -202 106 -265 64
-151 88 -309 57 -369 -18 -36 -31 -36 -68 4 -53 56 -129 198 -218 406 l-82
192 37 46 c20 25 52 67 72 93 20 26 37 46 38 45 1 -1 28 -69 58 -152z"/>
<path d="M15482 9460 c-107 -25 -191 -144 -192 -270 0 -218 157 -479 357 -592
58 -33 63 -42 89 -188 35 -193 -3 -347 -96 -395 -60 -31 -117 -17 -186 47 -88
81 -155 202 -339 608 -53 118 -101 219 -105 224 -42 44 -544 -291 -566 -378
-3 -14 18 -93 55 -202 139 -417 180 -552 191 -638 26 -191 -26 -353 -129 -406
-60 -30 -93 -26 -129 14 -48 55 -75 142 -157 496 -19 85 -49 206 -66 268 l-32
113 -31 -7 c-100 -21 -312 -129 -468 -240 -114 -80 -110 -69 -93 -270 8 -93
25 -243 37 -334 12 -91 21 -179 20 -196 -2 -37 -52 -234 -82 -326 -46 -137
-148 -316 -253 -440 -139 -166 -387 -297 -562 -298 -99 0 -164 31 -216 103
-42 58 -39 66 24 56 173 -28 465 83 645 246 113 102 204 266 224 403 27 186
-54 373 -200 459 -144 85 -369 85 -582 -2 -341 -140 -590 -368 -758 -694 -74
-142 -94 -192 -127 -318 -17 -63 -54 -156 -106 -261 -70 -144 -88 -172 -148
-234 -58 -59 -73 -69 -97 -66 -27 3 -29 7 -32 49 -2 32 10 96 37 195 57 207
65 260 51 329 -28 136 -167 192 -410 165 -89 -9 -305 -51 -345 -66 -8 -4 -14
13 -18 57 -13 144 -120 193 -270 122 -149 -71 -266 -262 -216 -355 6 -11 28
-27 49 -37 l38 -17 -33 -72 c-74 -158 -201 -329 -361 -482 -88 -84 -280 -240
-296 -240 -3 0 -9 11 -12 24 -18 71 -159 213 -275 275 -36 19 -51 32 -41 35 8
3 50 14 92 26 327 89 622 321 712 559 16 44 21 79 21 166 0 106 -1 113 -36
185 -69 144 -160 233 -329 319 -101 52 -234 98 -365 126 -125 27 -123 25 -65
68 51 38 55 44 42 63 -15 24 -54 34 -125 34 -91 0 -163 -20 -249 -71 -61 -36
-73 -39 -140 -39 -368 -1 -988 -117 -1463 -275 -452 -150 -720 -300 -961 -540
-100 -99 -127 -133 -157 -195 -47 -95 -55 -149 -32 -225 32 -112 154 -202 344
-253 90 -24 111 -26 321 -26 212 0 231 1 322 26 185 51 341 134 441 236 l49
49 -49 7 c-75 11 -148 50 -167 90 -65 137 78 365 339 541 227 152 477 247 739
279 46 6 48 5 34 -11 -8 -10 -113 -135 -233 -278 -661 -787 -991 -1088 -1444
-1316 -206 -103 -380 -151 -556 -152 -94 -1 -118 3 -163 22 -113 50 -122 132
-23 210 75 59 175 93 340 115 l86 12 -50 47 c-201 193 -755 255 -1264 141
-238 -53 -457 -140 -612 -243 -99 -66 -209 -183 -251 -269 -31 -62 -33 -74
-33 -167 0 -94 2 -105 34 -169 115 -235 488 -424 966 -490 419 -58 892 -4
1307 149 138 51 383 167 491 233 37 23 71 42 76 42 4 0 14 -19 20 -42 19 -63
126 -165 226 -216 93 -46 207 -84 331 -109 126 -25 482 -25 644 0 363 57 641
172 880 364 30 24 104 73 164 109 174 103 290 196 466 373 176 177 294 321
422 516 80 120 174 301 201 385 l15 45 52 3 c71 4 100 -15 100 -68 0 -47 -24
-110 -160 -416 -127 -286 -160 -382 -160 -464 0 -84 16 -133 61 -184 94 -106
271 -123 525 -51 287 82 551 291 756 596 l72 106 46 -33 c193 -138 563 -149
930 -27 298 99 602 293 782 499 75 85 162 216 207 312 19 40 39 72 44 72 5 0
22 -10 39 -21 83 -59 265 -77 410 -40 183 47 386 191 495 351 78 115 141 279
164 426 l12 80 68 -34 c259 -129 601 -37 873 234 162 162 244 347 266 600 17
195 -16 464 -86 693 -56 186 -182 399 -301 512 -82 78 -142 114 -219 134 -63
16 -73 17 -122 5z m-2682 -2570 c26 -64 -63 -259 -171 -374 -59 -63 -154 -134
-165 -123 -13 13 48 215 94 310 68 142 138 217 203 217 20 0 30 -7 39 -30z
m-3672 -92 c124 -61 218 -190 229 -316 18 -197 -183 -460 -422 -553 -73 -29
-75 -29 -132 -14 -177 46 -389 -21 -439 -140 -48 -115 23 -168 222 -164 l105
2 35 -34 c19 -19 47 -58 61 -87 33 -67 28 -127 -18 -213 -63 -118 -238 -245
-411 -298 -227 -69 -573 -65 -716 8 l-33 17 120 108 c352 315 693 756 1086
1406 201 332 194 322 224 315 14 -4 54 -20 89 -37z"/>
</g>
</svg>
